<svg width="279" height="66" viewBox="0 0 279 66" fill="none" xmlns="http://www.w3.org/2000/svg">
<path d="M84.8445 27L92.5245 5.7H96.6345L104.315 27H100.865L98.9145 21.45H90.2145L88.2945 27H84.8445ZM91.2345 18.51H97.9245L94.5645 8.79L91.2345 18.51ZM106.864 27V5.7H111.304L117.634 23.19L123.964 5.7H128.404V27H125.164V11.4L119.434 26.97H115.834L110.104 11.4V27H106.864ZM131.28 27L138.96 5.7H143.07L150.75 27H147.3L145.35 21.45H136.65L134.73 27H131.28ZM137.67 18.51H144.36L141 8.79L137.67 18.51ZM153.299 27V5.7H161.789C163.309 5.7 164.619 5.96 165.719 6.48C166.819 7 167.669 7.74 168.269 8.7C168.869 9.66 169.169 10.8 169.169 12.12C169.169 13.08 168.949 13.94 168.509 14.7C168.089 15.46 167.519 16.07 166.799 16.53C166.099 16.97 165.349 17.22 164.549 17.28L164.399 17.01C165.739 17.01 166.779 17.32 167.519 17.94C168.259 18.54 168.689 19.49 168.809 20.79L169.379 27H166.109L165.599 21.21C165.539 20.35 165.249 19.72 164.729 19.32C164.209 18.9 163.359 18.69 162.179 18.69H156.539V27H153.299ZM156.539 15.72H161.849C163.069 15.72 164.029 15.42 164.729 14.82C165.449 14.2 165.809 13.33 165.809 12.21C165.809 11.07 165.449 10.2 164.729 9.6C164.009 8.98 162.959 8.67 161.579 8.67H156.539V15.72ZM177.453 27V8.67H170.913V5.7H187.233V8.67H180.693V27H177.453ZM195.128 27V18.45L187.658 5.7H191.378L196.748 15.21L202.148 5.7H205.868L198.368 18.45V27H195.128ZM204.024 27L211.704 5.7H215.814L223.494 27H220.044L218.094 21.45H209.394L207.474 27H204.024ZM210.414 18.51H217.104L213.744 8.79L210.414 18.51ZM95.2845 60.48C93.3645 60.48 91.6745 60.04 90.2145 59.16C88.7545 58.26 87.6145 56.98 86.7945 55.32C85.9745 53.66 85.5645 51.68 85.5645 49.38C85.5645 47.1 85.9645 45.13 86.7645 43.47C87.5845 41.79 88.7245 40.5 90.1845 39.6C91.6445 38.68 93.3545 38.22 95.3145 38.22C97.9545 38.22 100.005 38.88 101.465 40.2C102.925 41.52 103.875 43.35 104.315 45.69L100.925 45.87C100.645 44.41 100.045 43.27 99.1245 42.45C98.2045 41.61 96.9345 41.19 95.3145 41.19C94.0145 41.19 92.8845 41.52 91.9245 42.18C90.9845 42.84 90.2445 43.78 89.7045 45C89.1845 46.22 88.9245 47.68 88.9245 49.38C88.9245 51.08 89.1845 52.54 89.7045 53.76C90.2445 54.98 90.9945 55.91 91.9545 56.55C92.9145 57.19 94.0245 57.51 95.2845 57.51C97.0045 57.51 98.3345 57.06 99.2745 56.16C100.235 55.24 100.835 53.98 101.075 52.38L104.465 52.56C104.205 54.18 103.685 55.58 102.905 56.76C102.125 57.94 101.095 58.86 99.8145 59.52C98.5345 60.16 97.0245 60.48 95.2845 60.48ZM108.123 60V38.7H111.363V48.96L109.803 47.82H122.763L121.203 48.96V38.7H124.443V60H121.203V49.62L122.763 50.76H109.803L111.363 49.62V60H108.123ZM137.829 60.48C135.769 60.48 133.999 60.04 132.519 59.16C131.039 58.26 129.899 56.98 129.099 55.32C128.299 53.66 127.899 51.68 127.899 49.38C127.899 47.08 128.299 45.1 129.099 43.44C129.899 41.76 131.039 40.47 132.519 39.57C133.999 38.67 135.769 38.22 137.829 38.22C139.909 38.22 141.689 38.67 143.169 39.57C144.669 40.47 145.809 41.76 146.589 43.44C147.389 45.1 147.789 47.08 147.789 49.38C147.789 51.68 147.389 53.66 146.589 55.32C145.809 56.98 144.669 58.26 143.169 59.16C141.689 60.04 139.909 60.48 137.829 60.48ZM137.829 57.51C139.209 57.51 140.389 57.19 141.369 56.55C142.369 55.91 143.129 54.99 143.649 53.79C144.169 52.57 144.429 51.1 144.429 49.38C144.429 47.66 144.169 46.19 143.649 44.97C143.129 43.75 142.369 42.82 141.369 42.18C140.389 41.52 139.209 41.19 137.829 41.19C136.469 41.19 135.299 41.52 134.319 42.18C133.339 42.82 132.579 43.75 132.039 44.97C131.519 46.19 131.259 47.66 131.259 49.38C131.259 51.1 131.519 52.57 132.039 53.79C132.579 54.99 133.339 55.91 134.319 56.55C135.299 57.19 136.469 57.51 137.829 57.51ZM154.775 60L149.135 38.7H152.585L156.725 55.53L160.865 38.7H164.165L168.305 55.53L172.415 38.7H175.925L170.255 60H166.475L162.515 44.46L158.555 60H154.775ZM178.875 60V38.7H185.715C189.055 38.7 191.625 39.63 193.425 41.49C195.225 43.33 196.125 45.96 196.125 49.38C196.125 52.78 195.235 55.4 193.455 57.24C191.695 59.08 189.175 60 185.895 60H178.875ZM182.115 57.03H185.715C188.075 57.03 189.835 56.4 190.995 55.14C192.175 53.86 192.765 51.94 192.765 49.38C192.765 46.78 192.175 44.85 190.995 43.59C189.835 42.31 188.075 41.67 185.715 41.67H182.115V57.03ZM199.588 60V38.7H202.828V48.96L201.268 47.82H214.228L212.668 48.96V38.7H215.908V60H212.668V49.62L214.228 50.76H201.268L202.828 49.62V60H199.588ZM229.332 60.48C227.652 60.48 226.182 60.16 224.922 59.52C223.682 58.86 222.722 57.93 222.042 56.73C221.382 55.53 221.052 54.11 221.052 52.47V38.67H224.292V52.47C224.292 54.09 224.732 55.34 225.612 56.22C226.492 57.08 227.732 57.51 229.332 57.51C230.932 57.51 232.172 57.08 233.052 56.22C233.932 55.34 234.372 54.09 234.372 52.47V38.67H237.612V52.47C237.612 54.11 237.272 55.53 236.592 56.73C235.932 57.93 234.982 58.86 233.742 59.52C232.502 60.16 231.032 60.48 229.332 60.48ZM242.772 60V38.7H251.262C252.782 38.7 254.092 38.96 255.192 39.48C256.292 40 257.142 40.74 257.742 41.7C258.342 42.66 258.642 43.8 258.642 45.12C258.642 46.08 258.422 46.94 257.982 47.7C257.562 48.46 256.992 49.07 256.272 49.53C255.572 49.97 254.822 50.22 254.022 50.28L253.872 50.01C255.212 50.01 256.252 50.32 256.992 50.94C257.732 51.54 258.162 52.49 258.282 53.79L258.852 60H255.582L255.072 54.21C255.012 53.35 254.722 52.72 254.202 52.32C253.682 51.9 252.832 51.69 251.652 51.69H246.012V60H242.772ZM246.012 48.72H251.322C252.542 48.72 253.502 48.42 254.202 47.82C254.922 47.2 255.282 46.33 255.282 45.21C255.282 44.07 254.922 43.2 254.202 42.6C253.482 41.98 252.432 41.67 251.052 41.67H246.012V48.72ZM267.228 60V51.45L259.758 38.7H263.478L268.848 48.21L274.248 38.7H277.968L270.468 51.45V60H267.228Z" fill="#F6F5F2"/>
<path d="M19.1084 15.6836C21.5591 11.4389 27.6861 11.4389 30.1367 15.6836L45.8779 42.9492C48.3286 47.1939 45.2656 52.5 40.3643 52.5H8.87988C3.97877 52.4998 0.915612 47.1938 3.36621 42.9492L19.1084 15.6836Z" stroke="#F6F5F2" stroke-width="5"/>
<path d="M31.2725 37.0444C31.2725 40.7172 28.2951 43.6946 24.6222 43.6946C20.9494 43.6946 17.972 40.7172 17.972 37.0444C17.972 33.3715 20.9494 30.3941 24.6222 30.3941C28.2951 30.3941 31.2725 33.3715 31.2725 37.0444Z" fill="#8A9A5B"/>
</svg>
